<?xml version="1.0" encoding="UTF-8"?>
<svg id="Layer_1" xmlns="http://www.w3.org/2000/svg" version="1.1" viewBox="0 0 1125 1125">
  <!-- Generator: Adobe Illustrator 29.5.1, SVG Export Plug-In . SVG Version: 2.1.0 Build 141)  -->
  <defs>
    <style>
      .st0 {
        fill: none;
      }

      .st1 {
        fill: #5771ff;
      }
    </style>
  </defs>
  <rect class="st0" y="0" width="1125" height="1125"/>
  <path class="st1" d="M1057.08,894.67c-244.41-153.67-455.91-12.82-455.91,11.28V393.77c0-91.04,121.1-140.12,270.53-140.12,71.85,0,136.97,17.03,185.38,44.77v596.25ZM527.51,905.95c0-24.1-211.64-164.95-456.06-11.28V298.44c48.43-27.78,113.51-44.77,185.38-44.77,149.57,0,270.67,49.08,270.67,140.12v512.18-.02h.01ZM567.92,280.37c-37.87-36.21-255.39-161.97-552.93-33.8v703.16h450.84c15.47,13.28,52.25,22.66,95.31,22.66s79.84-9.38,95.37-22.66h453.48V246.58c-285.29-125.78-513.28,7.26-542.1,33.8"/>
</svg>