<?xml version="1.0" encoding="UTF-8"?>
<svg id="Layer_1" xmlns="http://www.w3.org/2000/svg" version="1.1" viewBox="0 0 1125 1125">
  <!-- Generator: Adobe Illustrator 29.5.1, SVG Export Plug-In . SVG Version: 2.1.0 Build 141)  -->
  <defs>
    <style>
      .st0 {
        fill: none;
      }

      .st1 {
        fill: #5771ff;
      }
    </style>
  </defs>
  <rect class="st0" x="0" width="1125" height="1125"/>
  <path class="st1" d="M832.93,733.84c-133.65-84.03-249.3-7.01-249.3,6.17v-280.07c0-49.78,66.22-76.62,147.93-76.62,39.29,0,74.9,9.31,101.37,24.48v326.03ZM543.36,740.01c0-13.18-115.73-90.2-249.38-6.17v-326.03c26.48-15.19,62.07-24.48,101.37-24.48,81.79,0,148.01,26.84,148.01,76.62v280.07ZM565.46,397.93c-20.71-19.8-139.65-88.57-302.35-18.48v384.5h246.53c8.46,7.26,28.57,12.39,52.12,12.39s43.66-5.13,52.15-12.39h247.97v-384.5c-156-68.78-280.67,3.97-296.43,18.48"/>
</svg>