<svg xmlns="http://www.w3.org/2000/svg" version="1.1" xmlns:xlink="http://www.w3.org/1999/xlink" width="1500" height="1500" viewBox="0 0 1500 1500"><rect width="1500" height="1500" x="0" y="0" id="background" stroke="transparent" fill="#5771ff"></rect><svg xml:space="preserve" width="1000" height="1000" data-version="2" data-id="lg_DSYIJiAa6zXM4qnaOb" viewBox="0 0 568 98" x="250" y="250"><rect width="100%" height="100%" fill="transparent"></rect><path fill="#fff" d="m168.97 74.15-25.2-34.1h-10.1l30.6-38.9h18.8l-27.5 34.9-.2-7.1 33.4 45.2Zm-48 0v-73h16.4v73Z" paint-order="stroke"></path><rect width="67.8" height="73" x="-33.9" y="-36.5" fill="none" rx="0" ry="0" transform="translate(155.37 38.15)"></rect><path fill="#fff" d="M195.27 74.15v-54.8h12.7v23.5h-.9q0-8.4 2.15-14t6.55-8.4q4.4-2.8 10.7-2.8h.7q9.6 0 14.65 6.25 5.05 6.25 5.05 18.95v31.3h-16v-32.2q0-4.4-2.6-7.2t-7-2.8q-4.5 0-7.25 2.85t-2.75 7.45v31.9Z" paint-order="stroke"></path><rect width="51.6" height="56.5" x="-25.8" y="-28.25" fill="none" rx="0" ry="0" transform="translate(221.57 46.4)"></rect><path fill="#fff" d="M287.17 76.05q-7.2 0-12.8-2.25-5.6-2.25-9.45-6.15-3.85-3.9-5.85-8.95-2-5.05-2-10.65v-2.3q0-5.7 2.05-10.85 2.05-5.15 6-9.05 3.95-3.9 9.55-6.15 5.6-2.25 12.5-2.25 7.1 0 12.65 2.25 5.55 2.25 9.45 6.15 3.9 3.9 6 9.05t2.1 10.85v2.3q0 5.6-2 10.65-2 5.05-5.85 8.95-3.85 3.9-9.45 6.15-5.6 2.25-12.9 2.25m0-13.5q4.7 0 7.8-2 3.1-2 4.75-5.6 1.65-3.6 1.65-8 0-4.7-1.7-8.25t-4.85-5.65q-3.15-2.1-7.65-2.1-4.4 0-7.6 2.1-3.2 2.1-4.85 5.65-1.65 3.55-1.65 8.25 0 4.4 1.6 8 1.6 3.6 4.8 5.6 3.2 2 7.7 2" paint-order="stroke"></path><rect width="60.3" height="58.6" x="-30.15" y="-29.3" fill="none" rx="0" ry="0" transform="translate(287.72 47.25)"></rect><path fill="#fff" d="m347.37 74.15 10-53h17.5l11.6 53h-12.4l-11.9-52.6h7.1l-10.7 52.6Zm-3.8 0-.1-13.3h11l.1 13.3Zm-7.2 0-14.7-54.8h15.7l13.7 54.8Zm41.8 0 .1-13.3h11v13.3Zm4.5 0 12.2-54.8h14.7l-13.2 54.8Z" paint-order="stroke"></path><rect width="87.9" height="54.8" x="-43.95" y="-27.4" fill="none" rx="0" ry="0" transform="translate(366.12 47.25)"></rect><path fill="#fff" d="M420.17 74.15v-73h16.1v73Zm-6.5-61.2V1.15h22.6v11.8Z" paint-order="stroke"></path><rect width="22.6" height="73" x="-11.3" y="-36.5" fill="none" rx="0" ry="0" transform="translate(425.47 38.15)"></rect><path fill="#fff" d="M476.07 76.05q-7 0-12.35-2.4t-8.9-6.45q-3.55-4.05-5.4-9.1-1.85-5.05-1.85-10.35v-2q0-5.5 1.85-10.55 1.85-5.05 5.35-9.05 3.5-4 8.75-6.35 5.25-2.35 11.95-2.35 8.8 0 14.85 3.95 6.05 3.95 9.25 10.3 3.2 6.35 3.2 13.85v5.4h-48.5v-9.1h38.8l-5.2 4.2q0-4.9-1.4-8.4t-4.15-5.35q-2.75-1.85-6.85-1.85-4.2 0-7.1 1.9-2.9 1.9-4.4 5.55-1.5 3.65-1.5 8.95 0 4.9 1.4 8.55 1.4 3.65 4.4 5.65 3 2 7.8 2 4.4 0 7.2-1.7t3.8-4.2h14.7q-1.2 5.5-4.7 9.8-3.5 4.3-8.8 6.7-5.3 2.4-12.2 2.4" paint-order="stroke"></path><rect width="55.2" height="58.6" x="-27.6" y="-29.3" fill="none" rx="0" ry="0" transform="translate(475.67 47.25)"></rect><path fill="#fff" d="M512.27 95.85v-13.6h11.4q2.6 0 4.4-.65 1.8-.65 2.9-2.15 1.1-1.5 1.8-4.1l13.5-56h15.2l-15.3 59.2q-1.6 6.4-4.45 10.2-2.85 3.8-7.6 5.45-4.75 1.65-12.05 1.65Zm17.2-22.9v-12.5h11.6v12.5Zm-6.6 0-16.8-53.6h16.1l15.9 53.6Z" paint-order="stroke"></path><rect width="55.4" height="76.5" x="-27.7" y="-38.25" fill="none" rx="0" ry="0" transform="translate(534.27 58.1)"></rect><path fill="#fff" d="M51.747 17.779C48.583 14.752 30.401 4.237 5.53 14.952v58.776h37.685c1.293 1.109 4.368 1.895 7.967 1.895 3.593 0 6.675-.786 7.973-1.895H97.06V14.952c-23.848-10.512-42.905.607-45.312 2.827m-3.38 52.29c0-2.014-17.691-13.789-38.119-.942v-49.84c4.046-2.322 9.487-3.743 15.494-3.743 12.502 0 22.626 4.102 22.626 11.712zm44.265-.942c-20.428-12.847-38.109-1.072-38.109.942V27.257c0-7.61 10.125-11.712 22.614-11.712 6.007 0 11.448 1.421 15.495 3.742z"></path></svg></svg>